<?xml version="1.0" encoding="utf-8"?>
<!-- Generator: Adobe Illustrator 16.0.0, SVG Export Plug-In . SVG Version: 6.00 Build 0)  -->
<!DOCTYPE svg PUBLIC "-//W3C//DTD SVG 1.1//EN" "http://www.w3.org/Graphics/SVG/1.1/DTD/svg11.dtd">
<svg version="1.1" id="Capa_1" xmlns="http://www.w3.org/2000/svg" xmlns:xlink="http://www.w3.org/1999/xlink" x="0px" y="0px"
	 width="210.943px" height="300px" viewBox="44.529 0 210.943 300" enable-background="new 44.529 0 210.943 300"
	 xml:space="preserve">
<path fill="#1E201D" d="M47.701,97.982c-4.23,4.087-4.23,10.89,0,15.119c4.087,4.087,10.889,4.087,14.967,0l76.663-76.662
	l-0.002,252.976c0.009,5.897,4.697,10.585,10.594,10.585c5.896,0,10.736-4.687,10.736-10.584l0.002-252.977l76.519,76.664
	c4.23,4.087,11.042,4.087,15.119,0c4.23-4.229,4.23-11.042,0-15.119l-94.81-94.812c-4.088-4.229-10.889-4.229-14.967,0
	L47.701,97.982z"/>
</svg>
